<?xml version="1.0" encoding="iso-8859-1"?>
<!-- Generator: Adobe Illustrator 19.0.0, SVG Export Plug-In . SVG Version: 6.00 Build 0)  -->
<svg version="1.1" id="Capa_1" xmlns="http://www.w3.org/2000/svg" xmlns:xlink="http://www.w3.org/1999/xlink" x="0px" y="0px"
	 viewBox="0 0 422.947 422.947" style="enable-background:new 0 0 422.947 422.947;" xml:space="preserve">
<g>
	<g>
		<g>
			<path d="M241.613,132.097c4.359-0.719,7.311-4.836,6.592-9.195c-0.242-1.47-0.891-2.843-1.872-3.965l-39.56-46.8l6.6-60.56
				c0.77-4.351-2.132-8.502-6.483-9.272c-1.523-0.27-3.093-0.092-4.517,0.512l-56.8,23.16l-55.48-24.88
				C86.28-1.135,81.379,0.147,79.147,3.96c-0.858,1.466-1.228,3.168-1.054,4.858l4.48,61.2l-40.6,45
				c-3.209,3.037-3.347,8.101-0.31,11.309c1.077,1.138,2.464,1.934,3.99,2.291l59.52,14.64l30.44,53.2
				c2.149,3.86,7.021,5.247,10.881,3.098c1.218-0.678,2.238-1.664,2.959-2.858l32.28-52L241.613,132.097z"/>
			<path d="M379.293,386.698C379.293,386.698,379.293,386.698,379.293,386.698l-163.68-233.961l-24.64,5.16l-13.24,21.4
				l163.88,233.8c7.275,10.376,21.546,12.963,32,5.8C384.073,411.574,386.616,397.158,379.293,386.698z"/>
		</g>
	</g>
</g>
<g>
</g>
<g>
</g>
<g>
</g>
<g>
</g>
<g>
</g>
<g>
</g>
<g>
</g>
<g>
</g>
<g>
</g>
<g>
</g>
<g>
</g>
<g>
</g>
<g>
</g>
<g>
</g>
<g>
</g>
</svg>
